<?xml version="1.0" standalone="no"?>
<!DOCTYPE svg PUBLIC "-//W3C//DTD SVG 20010904//EN"
 "http://www.w3.org/TR/2001/REC-SVG-20010904/DTD/svg10.dtd">
<svg version="1.0" xmlns="http://www.w3.org/2000/svg"
 width="1008.000000pt" height="466.000000pt" viewBox="0 0 1008.000000 466.000000"
 preserveAspectRatio="xMidYMid meet">
<metadata>
Created by potrace 1.16, written by Peter Selinger 2001-2019
</metadata>
<g transform="translate(0.000000,466.000000) scale(0.100000,-0.100000)"
fill="#000000" stroke="none">
<path d="M2920 3145 l0 -925 135 0 135 0 0 925 0 925 -135 0 -135 0 0 -925z"/>
<path d="M3980 3145 l0 -925 135 0 135 0 0 925 0 925 -135 0 -135 0 0 -925z"/>
<path d="M5081 3993 c-41 -21 -60 -39 -78 -72 -46 -87 -22 -222 48 -271 45
-32 129 -47 185 -32 99 27 147 91 147 199 0 117 -69 189 -190 200 -50 4 -65 1
-112 -24z"/>
<path d="M950 2892 c-200 -515 -399 -1026 -441 -1134 l-77 -198 142 0 142 0
104 273 c57 149 111 291 121 315 l18 42 517 -2 516 -3 118 -308 c65 -169 120
-310 122 -313 3 -2 68 -3 144 -2 l139 3 -439 1133 -439 1132 -161 0 -161 0
-365 -938z m581 521 c28 -87 121 -339 206 -561 84 -222 153 -405 153 -408 0
-2 -187 -4 -415 -4 -231 0 -415 4 -415 9 0 5 70 192 155 415 85 224 175 470
200 547 43 136 52 159 60 159 2 0 27 -71 56 -157z"/>
<path d="M6685 3303 c-179 -25 -357 -128 -435 -250 -15 -23 -30 -40 -34 -36
-3 3 -6 31 -6 62 0 31 -3 86 -7 124 l-6 67 -118 0 -119 0 0 -855 0 -855 135 0
135 0 0 474 c0 285 4 506 11 553 43 313 250 493 554 481 83 -3 110 -8 160 -31
72 -33 148 -104 181 -169 57 -113 58 -115 62 -735 l3 -573 135 0 135 0 -3 618
c-4 685 -2 664 -73 809 -81 165 -257 282 -475 313 -64 10 -177 11 -235 3z"/>
<path d="M8555 3300 c-237 -38 -431 -165 -521 -342 -13 -26 -24 -53 -23 -60 0
-12 188 -154 193 -146 2 2 17 29 35 61 71 126 185 213 318 243 102 22 246 16
328 -16 81 -31 164 -114 193 -192 24 -65 41 -241 25 -251 -6 -4 -133 -27 -282
-52 -369 -62 -479 -96 -623 -191 -165 -110 -241 -261 -218 -435 21 -162 92
-257 245 -330 176 -83 412 -90 609 -18 97 35 171 83 236 151 l48 50 6 -39 c11
-63 60 -139 108 -167 81 -46 198 -57 322 -31 38 8 70 16 72 17 1 2 6 49 10
104 l7 100 -101 0 c-98 -1 -102 0 -129 27 l-28 27 -6 518 c-6 568 -7 573 -71
695 -62 116 -205 216 -366 258 -90 22 -297 33 -387 19z m553 -1082 c-5 -187
-20 -230 -107 -311 -106 -98 -250 -147 -429 -147 -208 0 -313 74 -315 219 -1
129 105 227 306 286 63 18 487 102 526 104 l23 1 -4 -152z"/>
<path d="M5050 2415 l0 -855 135 0 135 0 0 855 0 855 -135 0 -135 0 0 -855z"/>
<path d="M2930 1851 c0 -27 43 -142 69 -182 36 -58 83 -94 157 -121 81 -30
269 -32 362 -4 35 11 66 24 68 30 8 21 43 240 40 244 -2 2 -28 -4 -58 -13 -29
-9 -90 -19 -135 -22 -101 -7 -164 8 -198 48 l-24 29 -140 0 c-78 0 -141 -4
-141 -9z"/>
<path d="M3994 1818 c10 -61 57 -157 97 -197 42 -42 117 -78 195 -92 105 -20
322 8 349 45 12 16 50 234 42 242 -3 3 -29 -2 -59 -11 -74 -22 -203 -30 -257
-15 -25 6 -57 25 -72 41 l-27 29 -137 0 -138 0 7 -42z"/>
<path d="M2900 1273 c0 -63 28 -214 55 -296 115 -353 336 -570 645 -633 115
-23 306 -15 405 16 258 82 456 270 575 548 21 48 45 112 53 142 16 53 47 219
47 246 0 12 -143 14 -890 14 l-890 0 0 -37z m1525 -195 c-15 -50 -85 -189
-122 -244 -85 -124 -205 -222 -326 -264 -77 -28 -264 -38 -350 -20 -199 41
-385 227 -467 466 -11 31 -20 63 -20 71 0 11 112 13 646 13 l645 0 -6 -22z"/>
</g>
</svg>
